<svg width="128" height="128" viewBox="0 0 128 128" fill="none" xmlns="http://www.w3.org/2000/svg">
<g clip-path="url(#clip0_79_2590)">
<path d="M97.4546 43.9382L91.9226 49.4702C94.5181 54.2444 95.9958 59.6817 95.9958 65.4787C95.9958 83.9314 80.9722 98.955 62.5195 98.955C44.0668 98.955 29.0431 83.9314 29.0431 65.4787C29.0431 47.026 44.0668 32.0024 62.5195 32.0024C68.3167 32.0024 73.754 33.4801 78.528 36.0756L84.06 30.5436C77.7891 26.6598 70.4194 24.4242 62.5192 24.4242C39.8796 24.4242 21.4647 42.8391 21.4647 65.4787C21.4647 88.1183 39.8798 106.533 62.5195 106.533C85.1591 106.533 103.574 88.1186 103.574 65.4793C103.574 57.5791 101.338 50.2094 97.4546 43.9382ZM82.09 59.322L75.4402 65.9532C75.1939 72.8869 69.5106 78.4186 62.5198 78.4186C55.3774 78.4186 49.5801 72.6216 49.5801 65.4793C49.5801 58.4884 55.1121 52.8049 62.0461 52.5588L68.6959 45.928C66.7446 45.3028 64.6795 44.9618 62.52 44.9618C51.2097 44.9618 42.0023 54.1692 42.0023 65.4795C42.0023 76.7899 51.2097 85.9976 62.52 85.9976C73.8304 85.9976 83.0378 76.7899 83.0378 65.4795C83.0372 63.3382 82.7152 61.2545 82.09 59.322ZM116.115 33.3291L110.584 38.8611C114.96 46.7424 117.461 55.8172 117.461 65.4793C117.461 95.7728 92.813 120.421 62.5195 120.421C32.2259 120.421 7.57812 95.7728 7.57812 65.479C7.57812 35.1855 32.2259 10.5376 62.5195 10.5376C72.1816 10.5376 81.2561 13.0384 89.1376 17.4148L94.6696 11.8827C85.2725 6.21838 74.2656 2.95978 62.5195 2.95978C28.039 2.95978 0 30.9988 0 65.479C0 99.9591 28.039 127.998 62.5195 127.998C96.9999 127.998 125.039 99.9591 125.039 65.479C125.039 53.7332 121.78 42.726 116.115 33.3291ZM107.905 33.4901L100.671 32.6869L65.0356 68.3213C63.5559 69.801 61.1574 69.801 59.6777 68.3213C58.198 66.8414 58.198 64.4431 59.6777 62.9634L95.3118 27.329L94.5086 20.0958L114.604 0.000418186L117.283 10.7179L128 13.3967L107.905 33.4901Z" fill="#DCDCDC"/>
</g>
<defs>
<clipPath id="clip0_79_2590">
<rect width="128" height="128" fill="white"/>
</clipPath>
</defs>
</svg>
